<?xml version="1.0" encoding="utf-8"?>
<!-- Generator: Adobe Illustrator 16.0.0, SVG Export Plug-In . SVG Version: 6.00 Build 0)  -->
<!DOCTYPE svg PUBLIC "-//W3C//DTD SVG 1.1//EN" "http://www.w3.org/Graphics/SVG/1.1/DTD/svg11.dtd">
<svg version="1.1" id="Layer_1" xmlns="http://www.w3.org/2000/svg" xmlns:xlink="http://www.w3.org/1999/xlink" x="0px" y="0px"
	 width="744px" height="657px" viewBox="0 0 744 657" enable-background="new 0 0 744 657" xml:space="preserve">
<path id="path2224" fill="#010101" stroke="#010101" stroke-width="1" d="M7.72,533.626l713.358,1.639l-21.295-7.371v13.924
	l20.477-6.553"/>
<path id="path2226" fill="#010101" stroke="#010101" stroke-width="1" d="M31.701,615.787l1.638-594.173l-7.371,17.736h13.923
	l-6.552-17.054"/>
<path id="path3976" fill="#49A547" stroke="#49A547" stroke-width="2" d="M197.61,372.614l348.78-1.353l-10.436-3.539l0.043,6.808
	l9.992-3.267"/>
<path id="path4851" fill="none" stroke="#F15822" stroke-width="3" stroke-dasharray="3,6" d="M129.15,541.816l0.764,12.549"/>
<path id="path7474" fill="none" stroke="#F15822" stroke-width="3" stroke-dasharray="3,6" d="M643.871,540.777l0.766,13.588"/>
<path id="path9224" fill="none" stroke="#49A547" stroke-width="3" stroke-dasharray="3,6" d="M408.396,374.53l0.766,167.286"/>
<text transform="matrix(1 0 0 1 554.5996 374.5303)" fill="#49A547" font-family="'TimesNewRomanPS-BoldItalicMT'" font-size="32.5497">f’(c)=0</text>
<text transform="matrix(1 0 0 1 107.9604 453.6602)" fill="#2E2D7F" font-family="'TimesNewRomanPS-BoldItalicMT'" font-size="31.2926">y = f(x)</text>
<text transform="matrix(1 0 0 1 117.1479 581.4336)" fill="#F15822" font-family="'TimesNewRomanPS-BoldItalicMT'" font-size="41.8019">a</text>
<text transform="matrix(1 0 0 1 633.3281 590.541)" fill="#F15822" font-family="'TimesNewRomanPS-BoldItalicMT'" font-size="41.8019">b</text>
<text transform="matrix(1 0 0 1 397.6104 567.5195)" fill="#49A547" font-family="'TimesNewRomanPS-BoldItalicMT'" font-size="41.8019">c</text>
<text transform="matrix(1 0 0 1 676.9668 581.4336)" fill="#010101" font-family="'TimesNewRomanPS-BoldItalicMT'" font-size="41.8019">x</text>
<text transform="matrix(1 0 0 1 50.5156 49.7622)" fill="#010101" font-family="'TimesNewRomanPS-BoldItalicMT'" font-size="41.8019">y</text>
<path fill="none" stroke="#2A2A73" stroke-width="4" stroke-dasharray="4,8" d="M74.549,590.541
	c0,0,188.993-215.896,339.439-216.012c0,0,171.617,7.648,240.262,176.05"/>
<text transform="matrix(1 0 0 1 348.418 608.6074)" fill="#F15822" font-family="'TimesNewRomanPS-BoldItalicMT'" font-size="32.8216">f(a)=f(b)</text>
</svg>
